<svg width="10" height="7" viewBox="0 0 10 7" fill="none" xmlns="http://www.w3.org/2000/svg">
<path d="M2.86274 6.25C1.65111 6.25 1.04529 6.25 0.764766 6.01041C0.521356 5.80251 0.392181 5.49066 0.417296 5.17154C0.446241 4.80376 0.874618 4.37538 1.73137 3.51863L3.86863 1.38137C4.26465 0.985354 4.46265 0.787345 4.69098 0.713157C4.89183 0.647899 5.10817 0.647899 5.30902 0.713157C5.53735 0.787345 5.73535 0.985354 6.13137 1.38137L8.26863 3.51863C9.12538 4.37538 9.55376 4.80376 9.5827 5.17154C9.60782 5.49066 9.47864 5.80251 9.23523 6.01041C8.95471 6.25 8.34889 6.25 7.13726 6.25H2.86274Z" fill="#15272D" fill-opacity="0.62"/>
</svg>
